<?xml version="1.0" encoding="UTF-8"?>
<svg version="1.1" xmlns="http://www.w3.org/2000/svg" width="1127" height="1127">
<path d="M0 0 C371.91 0 743.82 0 1127 0 C1127 371.91 1127 743.82 1127 1127 C755.09 1127 383.18 1127 0 1127 C0 755.09 0 383.18 0 0 Z " fill="#000000" transform="translate(0,0)"/>
<path d="M0 0 C9.56366622 1.39395732 18.91716287 3.50505941 28.31735229 5.71209717 C30.91916291 6.32286716 33.522037 6.92890317 36.12524414 7.53369141 C39.54854546 8.32932107 42.97150017 9.12640661 46.39404297 9.92529297 C63.41319866 13.95972658 63.41319866 13.95972658 80.5625 17.375 C92.09205279 19.4484019 103.45115218 22.41366299 114.81396484 25.24438477 C117.568499 25.89766317 120.31413905 26.42935226 123.09765625 26.9375 C127.02899592 27.80340381 128.93163407 29.25252241 131.5 32.4375 C132.24378906 33.3346875 132.98757813 34.231875 133.75390625 35.15625 C134.49511719 36.0946875 135.23632812 37.033125 136 38 C137.4776019 39.81377587 138.95677186 41.62627542 140.4375 43.4375 C141.17871094 44.35402344 141.91992188 45.27054688 142.68359375 46.21484375 C145.84092094 50.01109044 149.18800591 53.61783358 152.53125 57.25 C155.72881296 60.81184229 158.71388343 64.52565833 161.71875 68.25 C164.06718968 71.08099578 166.50909902 73.79383598 169 76.5 C173.09351091 80.94727112 176.92442499 85.54717463 180.71875 90.25 C183.06718968 93.08099578 185.50909902 95.79383598 188 98.5 C192.09351091 102.94727112 195.92442499 107.54717463 199.71875 112.25 C202.06718968 115.08099578 204.50909902 117.79383598 207 120.5 C215.29109652 129.55305088 222.17386614 137.77577327 226.6640625 149.21484375 C229.34563184 155.93625959 232.22118464 162.57372961 235.0836792 169.21936035 C236.08766512 171.55863439 237.08309738 173.90139869 238.07666016 176.24511719 C240.96272412 183.03827549 243.84827154 189.79958123 247.11328125 196.421875 C255.77986781 214.42458912 258.97725692 233.39621944 262.41796875 252.94921875 C262.57985184 253.85860703 262.74173492 254.7679953 262.90852356 255.7049408 C264.08963867 262.68243967 264.41362007 268.96514062 262.8984375 275.9375 C262.65843018 277.06446289 262.41842285 278.19142578 262.17114258 279.35253906 C261.90841553 280.55620117 261.64568848 281.75986328 261.375 283 C260.82248894 285.59860889 260.27150042 288.19749382 259.72265625 290.796875 C259.58073349 291.46620056 259.43881073 292.13552612 259.29258728 292.82513428 C257.71651857 300.28404799 256.2572276 307.76472207 254.8125 315.25 C254.57515137 316.47203125 254.33780273 317.6940625 254.09326172 318.953125 C252.86251847 325.33819688 251.69237533 331.72992771 250.58203125 338.13671875 C248.71271767 348.88043935 246.50849604 359.55632569 244.32861328 370.24047852 C243.79729451 372.84861875 243.26958327 375.45747036 242.7421875 378.06640625 C242.50156082 379.23690269 242.50156082 379.23690269 242.256073 380.43104553 C240.30391109 390.05312217 240.30391109 390.05312217 240.28125 399.828125 C241.21818942 417.45664842 233.62577191 428.99898762 224.04052734 442.95166016 C222.20925582 445.68739314 220.57382376 448.45475253 218.96484375 451.32421875 C215.95809856 456.41513235 212.14694514 460.09788317 207.75 464 C206.23850784 465.38033365 204.72808715 466.76184151 203.21875 468.14453125 C202.49429687 468.80275879 201.76984375 469.46098633 201.0234375 470.13916016 C196.87641833 473.95293671 192.94956405 477.98362001 189 482 C185.67303659 485.37745696 182.26183706 488.63833248 178.78515625 491.859375 C171.10403551 498.97772056 163.63539721 506.27828405 156.29223633 513.74487305 C153.00441768 517.07177424 149.70432286 520.30716234 146.1484375 523.34765625 C140.32737757 528.35330921 135.04572877 533.92579226 129.68359375 539.41235352 C128.29600999 540.82994803 126.90201582 542.24125905 125.5078125 543.65234375 C124.68941895 544.48757568 123.87102539 545.32280762 123.02783203 546.18334961 C121 548 121 548 119 548 C119 548.66 119 549.32 119 550 C117.61914062 551.35742188 117.61914062 551.35742188 115.65625 552.96875 C110.30451548 557.51960875 105.429042 562.50024003 100.5 567.5 C95.13455658 572.94242253 89.77667241 578.27808353 83.96972656 583.24853516 C79.35703168 587.35010594 75.12988419 591.8763563 70.828125 596.29882812 C70.10367187 597.03423828 69.37921875 597.76964844 68.6328125 598.52734375 C67.65658936 599.52882446 67.65658936 599.52882446 66.66064453 600.55053711 C65 602 65 602 63 602 C62.74347656 602.58394531 62.48695313 603.16789063 62.22265625 603.76953125 C60.88239775 606.21453956 59.47530267 607.78966761 57.4375 609.6875 C56.81746094 610.28949219 56.19742187 610.89148438 55.55859375 611.51171875 C51.80797544 613.69337612 48.27658419 613.75589246 44 614 C43.1128833 614.06550049 42.2257666 614.13100098 41.31176758 614.19848633 C20.70558138 615.52623693 20.70558138 615.52623693 11.44921875 608.2109375 C9.86675138 606.78242628 8.30495746 605.33051944 6.76953125 603.8515625 C4.03173396 601.61797229 2.51335167 600.60697248 -1 600 C-7.18827344 601.34832828 -12.87860483 604.22822379 -18.57568359 606.91455078 C-24.87946487 609.73696886 -31.57218248 611.5417211 -38.25 613.25 C-38.930625 613.435625 -39.61125 613.62125 -40.3125 613.8125 C-44.24956251 614.81965553 -47.10479828 615.19452853 -51 614 C-51.83015625 613.75765625 -52.6603125 613.5153125 -53.515625 613.265625 C-62.06192617 610.09128456 -68.6413658 605.08416954 -75.7265625 599.44921875 C-76.42378418 598.89927246 -77.12100586 598.34932617 -77.83935547 597.78271484 C-79.3269361 596.55533476 -80.76754757 595.26950526 -82.16455078 593.93994141 C-89.56733195 587.2133983 -97.08819301 585.75995705 -106.625 584 C-108.12161917 583.70184413 -109.6177211 583.40107957 -111.11328125 583.09765625 C-114.73673135 582.36832334 -118.36586178 581.67433667 -122 581 C-122 580.34 -122 579.68 -122 579 C-122.58265625 578.74605469 -123.1653125 578.49210938 -123.765625 578.23046875 C-126.24188033 576.86679667 -127.80520626 575.35774797 -129.75 573.3125 C-133.0586906 569.90504252 -136.49186037 566.77640552 -140.140625 563.73828125 C-144.81755243 559.36594363 -147.11608694 554.85819337 -149.375 549 C-149.98205562 547.47303421 -150.59145645 545.94699881 -151.203125 544.421875 C-151.65461914 543.29555664 -151.65461914 543.29555664 -152.11523438 542.14648438 C-153.35656491 539.13495621 -154.73200193 536.19396499 -156.125 533.25 C-156.84236328 531.68185547 -156.84236328 531.68185547 -157.57421875 530.08203125 C-158.51850092 528.04082953 -159.50012682 526.0164601 -160.51953125 524.01171875 C-165.09835772 514.08462113 -165.48796077 501.46388231 -162 491 C-154.3328271 490.72007845 -146.66697917 490.52805428 -138.99584961 490.39575195 C-136.38922902 490.3405811 -133.78294662 490.26562137 -131.17749023 490.17016602 C-127.42086372 490.0360264 -123.66874814 489.97420674 -119.91015625 489.92578125 C-118.75354996 489.86900711 -117.59694366 489.81223297 -116.4052887 489.7537384 C-111.51473379 489.75004607 -108.3029057 489.94987782 -104.41879272 493.08041382 C-100.38808653 497.74769438 -97.54643956 502.7049282 -94.90429688 508.25390625 C-91.57617024 515.1265104 -88.17711504 521.31467482 -82 526 C-71.17871083 529.75901869 -59.26184761 528.68786918 -47.98846436 528.11151123 C-43.81297142 527.92440212 -39.63593735 527.87681786 -35.45703125 527.81640625 C-27.2970445 527.67839563 -19.15185846 527.38915424 -11 527 C-10.73147217 526.3930127 -10.46294434 525.78602539 -10.1862793 525.16064453 C-9 523 -9 523 -6.01953125 520.4296875 C-1.26980245 515.84265023 -1.16655982 509.48977088 -0.27539062 503.23046875 C0.9126781 496.64414099 2.94273242 492.65165603 8.27124023 488.47460938 C13.4264115 485.68877826 18.61938834 485.76484725 24.375 485.6875 C26.3947893 485.61025998 28.41457652 485.53281613 30.43412781 485.44958496 C31.89074504 485.39126954 33.34756156 485.33776314 34.80451965 485.28869629 C43.90452401 484.97477586 52.97611424 484.26150046 62.05523682 483.58853149 C66.6704071 483.24661816 71.28608738 482.91283751 75.90234375 482.5859375 C77.10377769 482.49707527 77.10377769 482.49707527 78.32948303 482.40641785 C83.23331385 482.06043718 88.08380597 481.94753261 93 482 C92.67 480.989375 92.34 479.97875 92 478.9375 C90.3426556 473.04208921 90.90836444 468.11707392 92.42529297 462.23168945 C93.40219552 458.43820336 94.30156458 454.62809911 95.1875 450.8125 C95.47270508 449.64170898 95.47270508 449.64170898 95.76367188 448.44726562 C97.23633834 442.65086009 97.23633834 442.65086009 96 437 C93.73597022 435.4086597 91.69416413 434.17195132 89.25 432.9375 C81.28570476 428.76533289 76.63389784 425.41225109 73.125 416.9375 C72.64546875 415.85758789 72.64546875 415.85758789 72.15625 414.75585938 C69.86755634 409.39733097 69.86755634 409.39733097 71 406 C72.80322266 405.15625 72.80322266 405.15625 75.1640625 404.5 C76.0312793 404.25419189 76.89849609 404.00838379 77.79199219 403.75512695 C78.72688477 403.50593506 79.66177734 403.25674316 80.625 403 C81.58051758 402.73727295 82.53603516 402.4745459 83.52050781 402.20385742 C90.01754674 400.44874091 96.51069839 398.89645255 103.13574219 397.70214844 C105.62106967 397.25055621 108.10260435 396.7772676 110.57861328 396.27709961 C118.94461897 394.65492487 127.19111262 393.64637583 135.6953125 393.078125 C137.21354614 392.97337105 137.21354614 392.97337105 138.76245117 392.86650085 C142.94910228 392.58226817 147.13532706 392.30496505 151.32519531 392.07226562 C154.43041508 391.89504228 157.53067747 391.67731963 160.6328125 391.453125 C161.5714212 391.41117004 162.51002991 391.36921509 163.4770813 391.32598877 C169.59558189 390.84324405 172.58369081 389.33954089 176.61616516 384.67929077 C177.07283066 384.12512482 177.52949615 383.57095886 178 383 C179.33736801 381.7731 180.68783215 380.55995785 182.0625 379.375 C182.67222656 378.84648437 183.28195312 378.31796875 183.91015625 377.7734375 C185.53698127 376.39291683 187.2282397 375.08819922 188.94140625 373.81640625 C192.68564817 370.69375896 194.65668592 366.83980424 196.875 362.5625 C197.73181561 360.95635989 198.58990578 359.35089912 199.44921875 357.74609375 C199.87251465 356.94929199 200.29581055 356.15249023 200.73193359 355.33154297 C201.92542091 353.13712558 203.17104216 350.98889304 204.45703125 348.84765625 C205.02284912 347.90007446 205.02284912 347.90007446 205.60009766 346.93334961 C206.62713818 345.22538168 207.66291139 343.52267372 208.69921875 341.8203125 C210.16177326 338.64924836 210.04676509 338.15608699 209 335 C204.16297734 323.90965524 199.58879302 317.41615899 188.36035156 312.15966797 C183.24599249 309.64692432 178.33294504 306.74246034 173.375 303.9375 C170.26803698 302.20384169 167.16079109 300.47163531 164.04296875 298.75756836 C161 297 161 297 158.14453125 295.04125977 C149.64873088 289.37089097 142.09962036 288.98171098 132.25 289.0625 C130.76298985 289.04935641 129.27600383 289.03309941 127.7890625 289.01367188 C124.19227356 288.97331918 120.59699827 288.97474557 117 289 C116.73646729 289.5676709 116.47293457 290.1353418 116.20141602 290.72021484 C114.91323699 293.16463992 113.43107958 295.26362961 111.77734375 297.4765625 C111.15666016 298.311875 110.53597656 299.1471875 109.89648438 300.0078125 C109.25001953 300.87148438 108.60355469 301.73515625 107.9375 302.625 C106.6536003 304.34534926 105.3709831 306.06665663 104.08984375 307.7890625 C103.23700806 308.92915771 103.23700806 308.92915771 102.36694336 310.09228516 C100.9578616 311.95308377 100.9578616 311.95308377 100 314 C99.34 314 98.68 314 98 314 C97.77828125 314.69867188 97.5565625 315.39734375 97.328125 316.1171875 C95.98030401 319.04275188 94.29270374 321.10582706 92.16455078 323.5012207 C87.72117163 328.51466647 87.72117163 328.51466647 85.6484375 334.73046875 C86.18224905 337.62267722 87.01376573 340.22778511 88 343 C93.04217139 359.43484508 93.04217139 359.43484508 90.09765625 365.57421875 C88.88341536 368.25764791 88.25800581 370.96135713 87.55444336 373.81274414 C85.34266191 382.03948032 85.34266191 382.03948032 81.96875 384.453125 C78.98839635 385.2642339 76.06649897 385.60930045 73 386 C69.35822358 386.78529838 65.74425607 387.6800424 62.125 388.5625 C60.75118164 388.87888428 60.75118164 388.87888428 59.34960938 389.20166016 C58.03573242 389.50595947 58.03573242 389.50595947 56.6953125 389.81640625 C55.91172363 389.99631104 55.12813477 390.17621582 54.32080078 390.36157227 C49.76212403 391.615616 46.56691466 393.05599173 43.21948242 396.43994141 C42.51913376 397.14051666 41.8187851 397.84109192 41.09721375 398.56289673 C40.3574379 399.31815643 39.61766205 400.07341614 38.85546875 400.8515625 C38.08568192 401.62559418 37.31589508 402.39962585 36.52278137 403.19711304 C34.07054686 405.6661135 31.62896085 408.14535004 29.1875 410.625 C27.52478028 412.30276915 25.86137661 413.97986078 24.19726562 415.65625 C20.12354708 419.76301025 16.05851761 423.87821972 12 428 C7.0582488 425.97037825 2.11814053 423.93684615 -2.82006836 421.89862061 C-4.6739061 421.1344238 -6.52918424 420.37372273 -8.38476562 419.61376953 C-11.1852277 418.45630155 -13.96850278 417.26470689 -16.75 416.0625 C-17.68070313 415.68416016 -18.61140625 415.30582031 -19.5703125 414.91601562 C-25.74848914 412.21195694 -29.36946688 409.33902438 -32 403 C-32 402.34 -32 401.68 -32 401 C-31.18015625 400.76410156 -30.3603125 400.52820313 -29.515625 400.28515625 C-25.80772506 398.89691142 -23.07418018 397.51335001 -20 395 C-18.75612966 391.78666828 -18.18309999 388.94181206 -17.66381836 385.56176758 C-16.19944867 377.02894674 -12.29940092 369.76937987 -8.15039062 362.22949219 C-3.69874313 353.46201956 -0.70586071 343.38776961 -2.1388855 333.50292969 C-5.12578846 324.82114803 -15.94953019 320.20030608 -23.375 315.875 C-25.31172687 314.67378829 -27.24407844 313.46549207 -29.171875 312.25 C-32.94708274 309.8834321 -36.74600119 307.5663699 -40.57421875 305.28662109 C-44.10600152 303.17304246 -47.56911024 300.99294633 -50.98828125 298.70166016 C-52.1430748 297.92944626 -52.1430748 297.92944626 -53.32119751 297.14163208 C-54.74056008 296.18429058 -56.15325596 295.21695231 -57.5574646 294.23751831 C-61.54327839 291.55968408 -64.28767898 290.38113346 -69.25 290.625 C-72.13381782 291.16729138 -72.13381782 291.16729138 -75 292 C-76.04542969 292.23332031 -77.09085938 292.46664063 -78.16796875 292.70703125 C-80.36076098 293.19693824 -82.5484368 293.71029231 -84.73046875 294.24609375 C-88.9428396 295.21740507 -93.16891317 295.8440486 -97.4453125 296.4609375 C-102.43280504 297.21728252 -107.39167468 298.12171344 -112.35253906 299.03515625 C-115.28160698 299.56547746 -118.01611049 300 -121 300 C-121.16145508 300.7110791 -121.32291016 301.4221582 -121.48925781 302.15478516 C-123.66144215 311.31153762 -126.74620962 320.00922698 -130.03515625 328.81640625 C-130.43089844 329.91597656 -130.82664062 331.01554687 -131.234375 332.1484375 C-131.59756836 333.12989746 -131.96076172 334.11135742 -132.33496094 335.12255859 C-133.47788225 340.06766525 -132.32344361 343.9537857 -129.8828125 348.29296875 C-129.44557861 349.07833008 -129.00834473 349.86369141 -128.55786133 350.67285156 C-128.08501709 351.50268555 -127.61217285 352.33251953 -127.125 353.1875 C-126.3992981 354.49992676 -126.3992981 354.49992676 -125.65893555 355.83886719 C-123.17208937 360.30500719 -120.59846342 364.6787944 -117.82421875 368.97265625 C-111.00795855 379.68407741 -108.71051478 386.22237375 -110 399 C-114.95 400.65 -119.9 402.3 -125 404 C-127.475 416.375 -127.475 416.375 -130 429 C-143.23513904 432.7814683 -151.80106294 432.2204919 -164.78222656 427.76171875 C-167.86534186 426.70278879 -170.95919395 425.67692327 -174.05273438 424.64892578 C-175.54739861 424.15080912 -177.04098461 423.64943915 -178.53320312 423.14404297 C-179.95519837 422.66380773 -181.37950107 422.19035663 -182.8059082 421.72338867 C-184.28198645 421.23672796 -185.75198671 420.73127351 -187.21557617 420.20825195 C-194.84287616 417.64416741 -202.59530491 417.06747435 -210.5625 416.4375 C-212.0227066 416.31355418 -213.48282993 416.1886237 -214.94287109 416.06274414 C-221.78298894 415.47910427 -228.62671965 414.94823888 -235.47265625 414.4375 C-237.16829712 414.30903687 -237.16829712 414.30903687 -238.89819336 414.17797852 C-240.98828317 414.02221409 -243.07893844 413.87379193 -245.17016602 413.73413086 C-246.57480103 413.63177124 -246.57480103 413.63177124 -248.0078125 413.52734375 C-248.80848145 413.47312256 -249.60915039 413.41890137 -250.43408203 413.36303711 C-253.72976544 412.89674965 -256.81894945 411.96493653 -260 411 C-261.21020787 405.91821164 -262.41860116 400.83599601 -263.62548828 395.75341797 C-264.0341989 394.03325437 -264.44336077 392.3131979 -264.85302734 390.59326172 C-267.1707728 380.8610087 -269.46269965 371.12681958 -271.5557251 361.34329224 C-272.19380249 358.40825043 -272.83936308 355.51515825 -273.73421764 352.64538383 C-276.01968111 345.22472345 -276.49064286 338.30810602 -276.56274414 330.57519531 C-276.58567032 329.27739136 -276.6085965 327.9795874 -276.63221741 326.64245605 C-276.70499352 322.37117058 -276.74664969 318.09983606 -276.78515625 313.828125 C-276.79996014 312.33952518 -276.81483229 310.85092604 -276.82977104 309.36232758 C-276.88983548 303.14956265 -276.94174085 296.93682356 -276.97176456 290.72383499 C-277.01451526 281.9214074 -277.10450467 273.12256149 -277.26393038 264.32144856 C-277.37298679 258.07960347 -277.42552609 251.83868933 -277.43924993 245.59591746 C-277.44873246 241.89515954 -277.47961607 238.19814803 -277.57191658 234.49845123 C-278.07976391 213.07090242 -273.6569137 197.31033402 -263.77242851 178.46056366 C-260.94131482 172.93297871 -258.48419529 167.2534218 -256 161.5625 C-255.0237315 159.37949384 -254.04604878 157.19711912 -253.06640625 155.015625 C-251.10920807 150.59774882 -249.23235102 146.15642702 -247.41854858 141.67848206 C-246.23359196 138.76117104 -245.02453797 135.85409537 -243.81420898 132.94723511 C-243.23933107 131.54744102 -242.67605367 130.14281407 -242.12573242 128.73318481 C-238.34687499 119.06391831 -234.16920909 113.39853045 -225 108 C-223.16131399 106.77885482 -221.3273636 105.55052426 -219.5 104.3125 C-218.00146484 103.3225 -218.00146484 103.3225 -216.47265625 102.3125 C-212.26452067 99.52279526 -208.10211886 96.6665892 -203.9375 93.8125 C-203.12514893 93.2558667 -202.31279785 92.6992334 -201.47583008 92.12573242 C-199.8086202 90.98294623 -198.14154763 89.83995971 -196.47460938 88.69677734 C-190.1517656 84.36136256 -183.82374102 80.03351422 -177.49511719 75.70654297 C-175.80010063 74.54723125 -174.10545202 73.38738142 -172.41113281 72.22705078 C-160.79336713 64.27163928 -149.13629473 56.38254357 -137.38208008 48.62963867 C-131.62504607 44.81560985 -126.00283503 40.85967224 -120.43530273 36.77416992 C-116.65862931 34.02278288 -112.77431227 31.4648087 -108.8671875 28.90234375 C-107.01812714 27.67551487 -105.18797237 26.41946084 -103.3828125 25.12890625 C-102.59648437 24.57074219 -101.81015625 24.01257813 -101 23.4375 C-100.319375 22.94121094 -99.63875 22.44492188 -98.9375 21.93359375 C-97 21 -97 21 -95.10449219 21.23217773 C-92.53090132 22.17115027 -91.28887063 23.38329542 -89.390625 25.3515625 C-88.71773437 26.03863281 -88.04484375 26.72570312 -87.3515625 27.43359375 C-86.65804687 28.15675781 -85.96453125 28.87992188 -85.25 29.625 C-80.6677737 34.35532107 -76.04515964 38.88672201 -71.04882812 43.17822266 C-67.23650173 46.56806769 -63.69937795 50.23791366 -60.125 53.875 C-58.62991839 55.39550816 -57.13263356 56.91385411 -55.6328125 58.4296875 C-54.98199707 59.09210449 -54.33118164 59.75452148 -53.66064453 60.43701172 C-52.06857485 62.08544452 -52.06857485 62.08544452 -50 63 C-49.45060465 65.4958357 -49.02900236 67.92817048 -48.6640625 70.453125 C-48.40706903 72.10639991 -48.14816819 73.75937908 -47.88769531 75.41210938 C-47.67699402 76.76067017 -47.67699402 76.76067017 -47.46203613 78.13647461 C-46.63459848 83.26462057 -45.70022422 88.37341457 -44.7734375 93.484375 C-44.5785675 94.56408569 -44.38369751 95.64379639 -44.18292236 96.75622559 C-43.58139003 100.08768518 -42.97828541 103.41885746 -42.375 106.75 C-41.76310815 110.13374262 -41.15156525 113.51754782 -40.54043579 116.90142822 C-40.16364266 118.98725372 -39.78636992 121.07299265 -39.40853882 123.15863037 C-39.07636422 124.9955914 -38.74587775 126.83285892 -38.41749573 128.67050171 C-38.0812929 130.54641052 -37.73605369 132.42069864 -37.38793945 134.29443359 C-36.60101098 139.78262825 -36.8065256 145.34079676 -36.8125 150.875 C-36.8117749 151.56351044 -36.8110498 152.25202087 -36.81030273 152.96139526 C-36.81158024 164.16907304 -37.24291175 175.32784255 -37.86108398 186.51702881 C-38.13731446 191.57862459 -38.38612065 196.64165799 -38.63400269 201.70471191 C-38.82897865 205.67208296 -39.03469094 209.63794454 -39.27197266 213.60302734 C-41.1493768 230.80857913 -41.1493768 230.80857913 -35.2565918 246.13964844 C-33.01778035 248.34689667 -30.54362417 250.15978028 -28 252 C-26.61701103 253.62569895 -25.26610905 255.28170915 -24 257 C-17.0054234 255.20004124 -10.67753007 252.57136223 -4.16015625 249.4765625 C-0.67265388 247.84704965 2.85554159 246.40720303 6.44140625 245.01171875 C10.50454631 243.40507253 14.51438303 241.67168149 18.53125 239.953125 C21 239 21 239 23 239 C20.57882811 224.8499565 18.02104887 210.77112425 14.9375 196.75 C13.94708427 192.16901385 12.9678816 187.58579939 12 183 C11.70778564 181.62134766 11.70778564 181.62134766 11.40966797 180.21484375 C6.43999598 156.02880638 5.02106198 130.80533808 3.73583984 106.18359375 C3.67719002 105.08875671 3.67719002 105.08875671 3.61735535 103.97180176 C3.52000113 102.06819838 3.43461431 100.16399298 3.3503418 98.25976562 C2.99083994 94.91476998 2.14082106 92.1538718 1 89 C0.56183901 86.54064475 0.17002327 84.09563721 -0.1875 81.625 C-1.14398812 75.35332645 -2.37436343 69.16911314 -3.78515625 62.984375 C-3.94497482 62.27916718 -4.1047934 61.57395935 -4.26945496 60.84738159 C-5.07916814 57.2840379 -5.9045774 53.72527124 -6.75073242 50.17041016 C-9.59969237 37.93752608 -7.84843865 29.81443371 -4.5 17.8125 C-3.86317817 15.50689807 -3.22770904 13.20092199 -2.59375 10.89453125 C-2.31208984 9.88237549 -2.03042969 8.87021973 -1.74023438 7.82739258 C-1.06000423 5.22919162 -0.49568096 2.63889662 0 0 Z " fill="#FEFEFE" transform="translate(583,63)"/>
<path d="M0 0 C0.71671875 0.28359375 1.4334375 0.5671875 2.171875 0.859375 C3.780625 1.36210938 3.780625 1.36210938 5.421875 1.875 C13.50372553 4.5352758 21.3647704 7.46021429 29.171875 10.859375 C30.45281625 11.40957353 31.73407394 11.95903587 33.015625 12.5078125 C34.0571875 12.95382812 35.09875 13.39984375 36.171875 13.859375 C36.50981971 16.87975589 36.84235933 19.90057256 37.171875 22.921875 C37.26726563 23.76943359 37.36265625 24.61699219 37.4609375 25.49023438 C38.89656327 38.76977277 38.89656327 38.76977277 36.51953125 42.34375 C35.76542969 43.09140625 35.01132812 43.8390625 34.234375 44.609375 C30.94563822 48.01080993 27.82243947 51.41911156 24.859375 55.109375 C20.75111339 60.18854853 16.52119073 65.151291 12.24487305 70.08886719 C11.75929932 70.6512207 11.27372559 71.21357422 10.7734375 71.79296875 C10.077948 72.59214722 10.077948 72.59214722 9.3684082 73.4074707 C8.06313732 74.92440843 8.06313732 74.92440843 6.81640625 77.0546875 C4.21215374 79.9125608 0.77160887 80.95366108 -2.765625 82.296875 C-4.19162621 82.85751377 -5.61740205 83.41872606 -7.04296875 83.98046875 C-7.80013184 84.2755835 -8.55729492 84.57069824 -9.33740234 84.87475586 C-18.09538804 88.33691586 -26.72120323 92.10308738 -35.328125 95.921875 C-42.33388539 99.02060761 -49.34880433 102.09486869 -56.39453125 105.1015625 C-57.02197235 105.36942062 -57.64941345 105.63727875 -58.29586792 105.91325378 C-61.34145245 107.21241663 -64.38856993 108.50776812 -67.4375 109.79907227 C-72.74391875 112.05745882 -77.96507247 114.37469553 -83.09545898 117.00805664 C-85.76830361 118.32131706 -88.53390301 119.33574912 -91.328125 120.359375 C-94.92783849 121.71339567 -98.42314737 123.07031896 -101.828125 124.859375 C-106.10408743 127.09617047 -110.57523442 128.7381579 -115.09375 130.41796875 C-124.16155981 133.85572895 -133.03060238 137.79949359 -141.890625 141.734375 C-149.55804773 145.12760471 -157.24231125 148.47631674 -164.953125 151.76953125 C-165.73392929 152.10311646 -166.51473358 152.43670166 -167.31919861 152.78039551 C-171.19369263 154.4347193 -175.06971211 156.08536945 -178.94750977 157.73193359 C-180.38820773 158.34597201 -181.82888259 158.96006465 -183.26953125 159.57421875 C-183.91450562 159.84677994 -184.55947998 160.11934113 -185.22399902 160.40016174 C-189.2385394 162.11450135 -193.14583156 163.98155017 -197.03105164 165.97207642 C-199.64810413 167.26423678 -202.34284216 168.28341764 -205.078125 169.296875 C-212.7642418 172.19696074 -220.34873461 175.30248895 -227.8515625 178.6484375 C-233.94981864 181.3664414 -240.07678285 184.01795229 -246.203125 186.671875 C-246.83720276 186.94683807 -247.47128052 187.22180115 -248.12457275 187.50509644 C-256.17246582 190.99461159 -264.22904459 194.46307014 -272.296875 197.90625 C-273.47595932 198.40985298 -273.47595932 198.40985298 -274.67886353 198.92362976 C-278.51814944 200.56329848 -282.35846778 202.20046056 -286.20068359 203.83325195 C-294.40660671 207.3039271 -294.40660671 207.3039271 -302.4453125 211.140625 C-305.61280085 212.74997243 -308.74934555 214.06351954 -312.078125 215.296875 C-319.73507826 218.1859569 -327.29284947 221.27572875 -334.76538086 224.61328125 C-340.45515345 227.14465459 -346.16652123 229.625637 -351.87890625 232.10546875 C-353.01410202 232.59845963 -354.14929779 233.0914505 -355.31889343 233.59938049 C-357.70981849 234.63750953 -360.10083679 235.67542387 -362.49194336 236.71313477 C-366.11937873 238.28765288 -369.74622376 239.86352531 -373.37304688 241.43945312 C-375.70829715 242.45320836 -378.04358247 243.46688287 -380.37890625 244.48046875 C-381.98261833 245.17758217 -381.98261833 245.17758217 -383.61872864 245.88877869 C-389.80729409 248.57264915 -396.01601951 251.19782849 -402.25627136 253.75941467 C-404.48272754 254.71165139 -406.62366281 255.73281021 -408.765625 256.859375 C-413.17636982 259.13323724 -417.79215272 260.81126309 -422.4296875 262.5625 C-425.79118982 263.8452802 -429.1260639 265.17738254 -432.453125 266.546875 C-433.89558594 267.14048828 -433.89558594 267.14048828 -435.3671875 267.74609375 C-438.00106609 268.85734597 -438.00106609 268.85734597 -440.828125 270.859375 C-445.52407457 270.63109967 -449.00603787 268.11022898 -452.828125 265.609375 C-454.24245867 264.69631779 -455.65788272 263.78494805 -457.07421875 262.875 C-457.83331543 262.38708984 -458.59241211 261.89917969 -459.37451172 261.39648438 C-461.98638856 259.760228 -464.63547111 258.20381933 -467.30078125 256.65625 C-468.22826172 256.1087207 -469.15574219 255.56119141 -470.11132812 254.99707031 C-471.91687485 253.93315539 -473.73162645 252.88465587 -475.55664062 251.85449219 C-482.18421951 247.89769089 -485.83698778 243.40065192 -489.828125 236.859375 C-490.3955542 235.96460449 -490.9629834 235.06983398 -491.54760742 234.14794922 C-493.34973165 231.29356111 -495.12084322 228.42140957 -496.890625 225.546875 C-498.87776156 222.36379038 -500.86995799 219.18391402 -502.86279297 216.00439453 C-504.1388629 213.9623656 -505.40907404 211.91665944 -506.67236328 209.86669922 C-513.81650997 198.31292328 -520.19661103 189.14453867 -531.828125 181.859375 C-532.95544277 181.11417152 -534.08049832 180.36553314 -535.203125 179.61328125 C-536.069375 179.03449219 -536.935625 178.45570313 -537.828125 177.859375 C-535.21591382 169.24875296 -531.62293211 160.02162773 -524.828125 153.859375 C-518.49624193 150.74084555 -511.4990251 149.97502234 -504.55664062 149.1875 C-500.25688929 148.67042181 -496.06238143 147.75603305 -491.828125 146.859375 C-488.79999819 146.23186023 -485.77099903 145.60857552 -482.7421875 144.984375 C-481.05206335 144.63551345 -479.36195955 144.28655333 -477.671875 143.9375 C-476.81335938 143.76025391 -475.95484375 143.58300781 -475.0703125 143.40039062 C-473.32895468 143.04042337 -471.58774287 142.67974903 -469.84667969 142.31835938 C-453.43103256 138.91262346 -453.43103256 138.91262346 -446.3515625 137.796875 C-442.62171783 137.20371042 -439.01341 136.43854438 -435.359375 135.484375 C-425.54769988 132.94202689 -415.54390744 131.23172542 -405.59130859 129.33886719 C-396.6320919 127.63097128 -387.72624807 125.91283975 -378.89746094 123.61035156 C-372.72124023 122.09921134 -366.46528721 120.94708595 -360.22610474 119.72787476 C-342.84819296 116.32872133 -325.5257233 112.70294288 -308.22802734 108.91748047 C-299.64794744 107.04847866 -291.07156537 105.29249228 -282.40919495 103.8445282 C-277.48215703 103.01505524 -272.69716742 101.86438744 -267.8671875 100.6015625 C-263.82980633 99.61556967 -259.76013347 98.87141339 -255.67260742 98.125 C-249.12965116 96.92689707 -242.6026902 95.65375129 -236.078125 94.359375 C-235.04921143 94.15779785 -234.02029785 93.9562207 -232.96020508 93.74853516 C-227.97473799 92.75614463 -223.03606875 91.68275742 -218.11328125 90.4140625 C-211.22154001 88.65661798 -204.26052331 87.29193703 -197.28320312 85.92797852 C-193.38393851 85.16517018 -189.48677019 84.39184077 -185.58984375 83.6171875 C-184.82239838 83.46465515 -184.054953 83.3121228 -183.26425171 83.15496826 C-177.26994547 81.95852032 -171.29513599 80.68543933 -165.328125 79.359375 C-156.3959049 77.37950176 -147.43741263 75.55137174 -138.46536255 73.76272583 C-136.15021152 73.29879603 -133.83659284 72.82780377 -131.52319336 72.35522461 C-119.1047792 69.83285581 -119.1047792 69.83285581 -113.125 69.0859375 C-99.1943667 67.2394063 -88.1646989 60.41607384 -76.36512756 53.21253967 C-70.15981364 49.4267106 -63.84596139 45.84172384 -57.51977539 42.26281738 C-52.61003963 39.48331706 -47.71645669 36.6762912 -42.828125 33.859375 C-41.91337402 33.34270264 -40.99862305 32.82603027 -40.05615234 32.29370117 C-34.65342014 29.17634814 -30.14993722 25.78570253 -25.703125 21.421875 C-24.4994473 20.27265209 -23.29502613 19.12420735 -22.08984375 17.9765625 C-21.52571777 17.43483398 -20.9615918 16.89310547 -20.38037109 16.33496094 C-17.89249601 13.96995355 -15.30918615 11.7243885 -12.69921875 9.49609375 C-11.26480614 8.24135704 -9.86770848 6.94385274 -8.48828125 5.62890625 C-7.69292969 4.87996094 -6.89757812 4.13101563 -6.078125 3.359375 C-5.36140625 2.6684375 -4.6446875 1.9775 -3.90625 1.265625 C-1.828125 -0.140625 -1.828125 -0.140625 0 0 Z " fill="#FDFDFD" transform="translate(605.828125,793.140625)"/>
<path d="M0 0 C0.80260254 0.10884521 1.60520508 0.21769043 2.43212891 0.32983398 C4.05470149 0.55147656 5.67647749 0.77903643 7.29736328 1.01269531 C9.2619571 1.27272131 11.23864714 1.43798695 13.21484375 1.5859375 C21.72362699 2.34914957 26.53460976 5.60264777 32.99267578 11.03173828 C35.70591362 13.24536903 38.57450179 15.23642795 41.4375 17.25 C42.62269733 18.09202371 43.80759175 18.93447392 44.9921875 19.77734375 C45.58225586 20.19612793 46.17232422 20.61491211 46.78027344 21.04638672 C49.7119664 23.12909353 52.63697415 25.22114381 55.5625 27.3125 C59.04852019 29.80397199 62.5354492 32.29410929 66.02734375 34.77734375 C71.35397891 38.56879148 76.66323301 42.37776515 81.91772461 46.26879883 C89.08453715 51.57348153 96.37511309 56.66346124 103.77807617 61.6340332 C108.44676284 64.78771227 112.92670613 68.10304034 117.35205078 71.58935547 C120.85484264 74.31993918 124.45482753 76.91046856 128.0625 79.5 C129.22036011 80.33301636 129.22036011 80.33301636 130.40161133 81.18286133 C132.78634431 82.89587956 135.17376819 84.60506316 137.5625 86.3125 C138.30161621 86.84101562 139.04073242 87.36953125 139.80224609 87.9140625 C144.70127693 91.4107032 149.62386307 94.87207398 154.5625 98.3125 C155.16562012 98.73595703 155.76874023 99.15941406 156.39013672 99.59570312 C165.34430893 105.85791722 174.66538109 111.30038759 184.20654297 116.62109375 C190.51933848 120.1415905 196.69354959 123.79761806 202.8203125 127.6328125 C206.2914814 129.75902707 209.83635082 131.68802073 213.45703125 133.546875 C215.87301851 134.92049291 217.92908579 136.29841562 220.13671875 137.953125 C234.94231272 148.47172079 251.61880253 149.18033357 269.17382812 150.87890625 C274.63133909 151.40790004 280.06360343 152.10182461 285.5 152.8125 C287.34491018 153.0415107 289.18996924 153.26932432 291.03515625 153.49609375 C296.37842932 154.15956962 301.71866386 154.84541383 307.05859375 155.53515625 C307.90858444 155.64479706 308.75857513 155.75443787 309.63432312 155.86740112 C316.53308578 156.75743095 316.53308578 156.75743095 319.91281128 157.19677734 C321.52116912 157.40584178 323.12963318 157.6140907 324.73820496 157.82150269 C326.3174679 158.02556936 327.8964233 158.23203113 329.47505188 158.44094849 C333.50876686 158.96509304 337.53190162 159.40967037 341.58691406 159.73388672 C342.80980637 159.84058937 342.80980637 159.84058937 344.05740356 159.94944763 C345.60218705 160.08070497 347.14863565 160.19411366 348.69625854 160.286026 C352.59733308 160.63016554 354.42460936 161.19581882 357.44970703 163.75561523 C358.14692871 164.59938721 358.84415039 165.44315918 359.5625 166.3125 C360.51382813 167.33730469 360.51382813 167.33730469 361.484375 168.3828125 C366.02538425 173.4865964 370.38839985 178.71182891 374.6796875 184.02734375 C376.51331718 186.32737431 376.51331718 186.32737431 378.5625 188.3125 C379.88234015 198.92679343 377.93188823 207.65686831 373.5625 217.3125 C373.2325 217.6425 372.9025 217.9725 372.5625 218.3125 C372.61978271 219.39716553 372.67706543 220.48183105 372.73608398 221.59936523 C373.09056096 229.442679 372.53930096 235.17998842 367.22061157 241.23965454 C364.13020634 244.41122035 360.9082639 247.40533987 357.625 250.375 C356.29397878 251.64277054 354.96646895 252.91423836 353.64257812 254.18945312 C344.05803321 263.3125 344.05803321 263.3125 341.5625 263.3125 C341.5625 263.9725 341.5625 264.6325 341.5625 265.3125 C339.98828125 266.86328125 339.98828125 266.86328125 337.875 268.625 C335.29324505 270.77796698 333.26089129 272.68371071 331.125 275.3125 C328.5625 277.3125 328.5625 277.3125 326.65771484 277.33959961 C325.93277832 277.23655518 325.2078418 277.13351074 324.4609375 277.02734375 C323.66018799 276.9176123 322.85943848 276.80788086 322.03442383 276.69482422 C320.81082153 276.50557373 320.81082153 276.50557373 319.5625 276.3125 C318.81701904 276.2005127 318.07153809 276.08852539 317.3034668 275.97314453 C314.27531278 275.50057152 311.2558025 274.98647747 308.23779297 274.453125 C305.01692557 273.88430666 301.858664 273.33786319 298.59765625 273.05859375 C290.7842131 272.26078675 286.34930197 267.00223804 281.04736328 261.73779297 C278.83530323 259.61447719 276.46064491 257.72066423 274.0625 255.8125 C270.08620306 252.61318062 266.29583927 249.2866296 262.5625 245.8125 C257.93004339 241.50250895 253.14127484 237.46188604 248.2109375 233.4921875 C244.72906206 230.6265732 241.41764082 227.59210788 238.0859375 224.5546875 C235.51167642 222.26734096 232.86960511 220.09701729 230.1875 217.9375 C226.15047015 214.67485106 222.29709691 211.2833843 218.5 207.75 C208.48448112 198.46036024 199.23738096 191.59000469 186.44140625 186.80078125 C181.83354391 185.05657591 177.29211165 183.15772225 172.75 181.25 C171.96206055 180.92161133 171.17412109 180.59322266 170.36230469 180.25488281 C166.66148394 178.69508426 163.0318795 177.07376693 159.45703125 175.2421875 C155.76230625 173.3621101 151.96504241 171.88830913 148.0625 170.5 C140.36080586 167.68773674 132.89185704 164.45389965 125.40380859 161.12207031 C121.79655072 159.53606301 118.1498737 158.04503021 114.50390625 156.55078125 C112.89159748 155.87202709 111.28614417 155.16930682 109.73291016 154.36450195 C103.32614227 151.17305702 96.91885833 150.13742303 89.86730957 149.15988159 C86.3036716 148.66581398 82.74622535 148.12964857 79.1875 147.6015625 C78.46266418 147.4953508 77.73782837 147.3891391 76.99102783 147.27970886 C69.90789147 146.23562124 62.86137867 145.0033376 55.8125 143.75 C46.35448108 142.08169535 36.88989171 140.61628021 27.375 139.3125 C13.99955193 137.46874074 0.79255508 134.99319736 -12.4375 132.3125 C-15.29670697 131.73678907 -18.15606216 131.16183125 -21.015625 130.58789062 C-22.68937611 130.25088535 -24.36260561 129.91127292 -26.03515625 129.56835938 C-30.49064986 128.66261457 -34.92987972 127.9095358 -39.4375 127.3125 C-42.59146082 119.86836887 -45.24657108 112.25907477 -47.88696289 104.62207031 C-51.01842659 95.50787794 -51.01842659 95.50787794 -54.640625 86.58203125 C-56.75304271 81.62415536 -57.6699268 77.71678386 -57.13671875 72.32421875 C-57.02924316 71.18815186 -56.92176758 70.05208496 -56.81103516 68.8815918 C-56.68776855 67.7037915 -56.56450195 66.52599121 -56.4375 65.3125 C-56.32583496 64.1572583 -56.21416992 63.0020166 -56.09912109 61.81176758 C-55.75360936 58.30949062 -55.38028892 54.81115808 -55 51.3125 C-54.87818359 50.12527344 -54.75636719 48.93804688 -54.63085938 47.71484375 C-54.50646484 46.57144531 -54.38207031 45.42804687 -54.25390625 44.25 C-54.14506104 43.22777344 -54.03621582 42.20554687 -53.92407227 41.15234375 C-52.89820033 35.16491659 -50.91008314 32.46304106 -46.1875 28.6875 C-45.65954834 28.26146484 -45.13159668 27.83542969 -44.58764648 27.39648438 C-42.87960952 26.02386102 -41.15964668 24.66736421 -39.4375 23.3125 C-38.28756928 22.39867797 -37.13782982 21.48461521 -35.98828125 20.5703125 C-28.20283716 14.40182845 -20.33215362 8.3403267 -12.4375 2.3125 C-11.52677734 1.40951172 -11.52677734 1.40951172 -10.59765625 0.48828125 C-7.13927286 -1.39412996 -3.74648464 -0.54852278 0 0 Z " fill="#FDFDFD" transform="translate(101.4375,543.6875)"/>
<path d="M0 0 C4.87109112 -0.01308978 9.74218455 -0.0244122 14.61328125 -0.03515625 C15.36932018 -0.03692368 16.12535912 -0.0386911 16.90430832 -0.04051208 C26.1619995 -0.06137674 35.41933235 -0.06476647 44.67700195 -0.03295898 C47.27538073 -0.02459344 49.87375982 -0.01634876 52.47213936 -0.00822258 C54.20886895 -0.00272626 55.94559766 0.00305707 57.68232536 0.00912285 C67.29663227 0.03985642 76.89478662 -0.00429359 86.50576782 -0.27815247 C115.17093165 -1.08896308 136.58072389 2.78746851 162.15625 16.04150391 C166.26591592 18.16402755 170.46759714 19.96089385 174.75708008 21.68945312 C178.86282807 23.34869089 182.93426956 25.08380127 187.0078125 26.8203125 C188.65866793 27.52259751 190.30954732 28.2248262 191.96044922 28.92700195 C192.80444275 29.28621735 193.64843628 29.64543274 194.51800537 30.01553345 C198.95421024 31.90346251 203.39121308 33.78951461 207.828125 35.67578125 C208.70367035 36.04803329 209.5792157 36.42028534 210.48129272 36.80381775 C217.94442715 39.97676948 225.40825244 43.14805835 232.875 46.3125 C233.87547363 46.73740723 234.87594727 47.16231445 235.90673828 47.60009766 C240.14315786 49.39402838 244.38483453 51.16213474 248.6640625 52.8515625 C255.24098006 55.46586454 261.73045926 58.28661087 268.23034668 61.08532715 C272.10547664 62.7537193 275.9823943 64.41794528 279.859375 66.08203125 C280.63396057 66.41455902 281.40854614 66.74708679 282.206604 67.08969116 C291.40932269 71.03774492 300.63322618 74.93517385 309.859375 78.828125 C310.75027832 79.21331299 311.64118164 79.59850098 312.55908203 79.99536133 C314.92749373 81.01315129 314.92749373 81.01315129 317.15576172 81.66674805 C319.69997269 82.49162122 321.58706383 83.25833339 322.921875 85.65576172 C323.6638855 87.86100412 324.16536333 90.03163963 324.625 92.3125 C324.91383057 93.56099731 324.91383057 93.56099731 325.20849609 94.8347168 C325.61816196 96.62125075 326.01439122 98.41090901 326.3984375 100.203125 C327.006154 103.02861209 327.65358464 105.8422938 328.3125 108.65625 C329.38755329 113.26611663 330.42337687 117.88353065 331.44335938 122.50585938 C331.95178619 124.78396829 332.47923212 127.05646908 333.015625 129.328125 C333.29921875 130.56046875 333.5828125 131.7928125 333.875 133.0625 C334.24238281 134.62677734 334.24238281 134.62677734 334.6171875 136.22265625 C335.52392037 142.80109572 332.55306514 146.5557811 328.875 151.6875 C328.37436035 152.40010986 327.8737207 153.11271973 327.35791016 153.84692383 C325.91206838 155.90285395 324.45652396 157.951632 323 160 C321.79026806 161.72818849 320.58167402 163.45717499 319.375 165.1875 C318.84390625 165.94417969 318.3128125 166.70085937 317.765625 167.48046875 C315.54525039 170.64892368 313.33268542 173.82269356 311.125 177 C310.73103027 177.56485107 310.33706055 178.12970215 309.93115234 178.71166992 C307.81264525 181.76301214 307.81264525 181.76301214 306 185 C299.42867033 185.38452922 292.86160798 185.63051099 286.28222656 185.83154297 C283.1992433 185.93943557 280.12447494 186.10869134 277.04589844 186.30517578 C253.01331701 187.81002422 236.03941066 188.28396382 216.76220703 172.22363281 C212.16420359 168.52214657 207.17101167 165.46292446 202.1875 162.3125 C200.29077699 161.07757857 198.3962061 159.83934477 196.50390625 158.59765625 C188.78011748 153.54670313 181.04156433 148.5185101 173.30078125 143.49365234 C171.81358144 142.52817182 170.32658789 141.56237346 168.83984375 140.59619141 C162.24608246 136.31178717 155.64824225 132.0354951 149 127.8359375 C138.01851303 120.89562964 127.15670529 113.80405638 116.36672974 106.57141113 C109.21955662 101.78285894 102.04354158 97.06497139 94.71899414 92.55151367 C86.86550523 87.70715979 79.16239659 82.6302358 71.43554688 77.58740234 C67.73350244 75.17454219 64.02348954 72.77407148 60.3125 70.375 C59.62075684 69.92761475 58.92901367 69.48022949 58.21630859 69.01928711 C56.14433409 67.6793261 54.07219472 66.33962044 52 65 C47.09804457 61.83101225 42.19708597 58.66049775 37.29785156 55.48730469 C35.6883216 54.44552223 34.07824959 53.40457696 32.46777344 52.36425781 C27.35198614 49.05940227 22.24716631 45.73873287 17.15380859 42.39941406 C15.30870179 41.20057568 13.45119717 40.02791152 11.58203125 38.8671875 C10.24205078 38.00480469 10.24205078 38.00480469 8.875 37.125 C8.15054688 36.67382812 7.42609375 36.22265625 6.6796875 35.7578125 C2.09428741 30.95913799 2.19427991 22.15335931 1.375 15.875 C1.2409375 14.89917969 1.106875 13.92335938 0.96875 12.91796875 C0.38669719 8.56445134 -0.02854046 4.39540207 0 0 Z " fill="#FDFDFD" transform="translate(709,857)"/>
<path d="M0 0 C2.39852963 -0.2709769 4.17990443 -0.28629213 6.52319336 0.31274414 C8.56753938 2.01335056 10.03564212 3.84884263 11.64428711 5.96508789 C13.72895245 8.56983606 16.00423884 10.6281305 18.52319336 12.81274414 C19.3675293 13.5771582 20.21186523 14.34157227 21.08178711 15.12915039 C22.58020552 16.46933582 24.10884851 17.77766749 25.68334961 19.02758789 C29.77704346 22.7346084 30.90306319 25.90751095 31.35131836 31.43457031 C31.53843905 35.39626629 31.54697059 39.34749499 31.52319336 43.31274414 C31.53421116 44.96249832 31.54721379 46.6122405 31.56225586 48.26196289 C31.5890553 52.27981795 31.56896411 56.29508944 31.52319336 60.31274414 C30.77295898 60.55508789 30.02272461 60.79743164 29.24975586 61.04711914 C28.22624023 61.38227539 27.20272461 61.71743164 26.14819336 62.06274414 C25.15045898 62.38758789 24.15272461 62.71243164 23.12475586 63.04711914 C20.37222089 64.01438739 17.70607729 65.04622328 15.01147461 66.15527344 C9.45288072 68.38679434 3.8096009 70.26521292 -1.89086914 72.09790039 C-2.94535248 72.4402623 -3.99983582 72.78262421 -5.08627319 73.13536072 C-8.4237547 74.2185307 -11.76265994 75.29721957 -15.10180664 76.37524414 C-18.44790916 77.45739512 -21.79367448 78.54055906 -25.13876343 79.62583923 C-27.21058128 80.2978415 -29.28299785 80.96800169 -31.35610962 81.63600159 C-35.54662847 82.993724 -39.70930513 84.37363102 -43.82250977 85.95166016 C-46.92055311 87.10556126 -49.878427 88.00673035 -53.09399414 88.74243164 C-54.62540039 89.10014648 -54.62540039 89.10014648 -56.18774414 89.46508789 C-57.23188477 89.70356445 -58.27602539 89.94204102 -59.35180664 90.18774414 C-66.63629194 91.85944013 -73.85845307 93.66790563 -81.05102539 95.69555664 C-90.7894281 98.43862823 -100.59219568 100.88963495 -110.41430664 103.31274414 C-121.91538218 106.15608102 -133.39647359 109.05672385 -144.84912109 112.08959961 C-151.53533136 113.86009498 -158.23185313 115.59046365 -164.92993164 117.31542969 C-166.38163892 117.68961638 -167.83313567 118.06462073 -169.28442383 118.44042969 C-178.07359343 120.71630206 -186.87290025 122.91832985 -195.72305298 124.94606018 C-199.93429823 125.91792831 -204.08250277 127.02491489 -208.22680664 128.25024414 C-214.90598548 130.21110398 -221.64631188 131.80040693 -228.42333984 133.37792969 C-235.20879491 134.97252084 -241.92203639 136.7603842 -248.61645508 138.70117188 C-252.55703517 139.83281376 -256.43021342 140.67352613 -260.47680664 141.31274414 C-260.36649578 137.10389167 -260.23596672 132.8958986 -260.10180664 128.68774414 C-260.07086914 127.49793945 -260.03993164 126.30813477 -260.00805664 125.08227539 C-259.95004883 123.35170898 -259.95004883 123.35170898 -259.89086914 121.58618164 C-259.85944824 120.52834473 -259.82802734 119.47050781 -259.7956543 118.38061523 C-259.42520543 114.81625041 -259.17835595 112.50424426 -257.47680664 109.31274414 C-254.53411212 107.1457523 -251.32239207 105.64322356 -248.02758789 104.08227539 C-247.06394821 103.60634445 -246.10030853 103.13041351 -245.10746765 102.64006042 C-242.01030667 101.11612187 -238.90037355 99.62055483 -235.78930664 98.12524414 C-233.77604579 97.13943161 -231.76366601 96.15181757 -229.75219727 95.16235352 C-220.80426156 90.77396878 -211.81602773 86.47107368 -202.81713867 82.18836975 C-188.85276555 75.53947696 -175.03289952 68.61826982 -161.22998047 61.64135742 C-149.95976857 55.94907656 -138.67970382 50.35993365 -127.11201477 45.29269409 C-121.99043322 43.04266633 -117.0285885 40.58668567 -112.10180664 37.93774414 C-111.28462158 37.50163818 -110.46743652 37.06553223 -109.62548828 36.61621094 C-108.9073999 36.23118408 -108.18931152 35.84615723 -107.44946289 35.44946289 C-95.11073905 28.91328603 -82.57567141 22.7465372 -70.04808044 16.58258057 C-65.87743939 14.52458757 -61.75173857 12.41199314 -57.66430664 10.19165039 C-44.37127348 3.20222306 -30.61195393 2.41845338 -15.86767578 1.52929688 C-10.56000836 1.19033071 -5.27624228 0.66622635 0 0 Z " fill="#FDFDFD" transform="translate(1017.476806640625,619.687255859375)"/>
</svg>
