<svg version="1.1" id="Layer_1" xmlns="http://www.w3.org/2000/svg" xmlns:xlink="http://www.w3.org/1999/xlink" x="0px" y="0px"
	 width="100%" viewBox="0 0 1127 1127" enable-background="new 0 0 1127 1127" xml:space="preserve">
<path fill="#000000" opacity="1.000000" stroke="none" 
	d="
M634.000000,1128.000000 
	C422.690002,1128.000000 211.879974,1128.000000 1.034986,1128.000000 
	C1.034986,752.398193 1.034986,376.796448 1.034986,1.097323 
	C376.560211,1.097323 752.120422,1.097323 1127.840332,1.097323 
	C1127.840332,376.666626 1127.840332,752.333313 1127.840332,1128.000000 
	C963.462708,1128.000000 798.981384,1128.000000 634.000000,1128.000000 
M400.755524,144.272202 
	C384.662231,155.258957 368.520813,166.176651 352.532349,177.313934 
	C350.370178,178.820068 348.395111,181.167221 347.314850,183.566803 
	C334.673157,211.647232 322.179596,239.794769 309.785004,267.985321 
	C308.692444,270.470276 308.080261,273.381165 308.072998,276.096405 
	C307.965881,316.093079 307.903168,356.090546 308.096893,396.086548 
	C308.127991,402.506805 309.060883,408.996399 310.278198,415.318909 
	C311.881317,423.645355 314.172668,431.839630 316.178253,440.088226 
	C319.076782,452.009521 321.984467,463.928589 324.884186,475.831909 
	C333.423462,476.592926 341.546906,477.300995 349.667236,478.043701 
	C370.020905,479.905273 390.601013,480.317566 409.991669,488.106537 
	C414.603912,489.959167 419.617401,490.809174 424.239136,492.642700 
	C432.564484,495.945557 440.828064,496.469482 449.570435,494.319397 
	C452.640442,493.564331 453.608704,492.494080 454.117737,489.674530 
	C455.240326,483.456299 456.853424,477.326782 457.982880,471.109589 
	C458.502319,468.250397 459.854401,466.860260 462.628723,466.174408 
	C466.427887,465.235229 470.128326,463.896667 473.275726,462.914948 
	C475.333923,452.897064 472.703033,444.764404 467.639618,436.823944 
	C461.741180,427.574005 456.618561,417.817413 451.444763,408.128235 
	C450.505859,406.369995 450.254669,403.662750 450.853210,401.760956 
	C454.399658,390.491486 458.423553,379.372375 461.979309,368.105652 
	C462.975433,364.949371 464.587402,363.691620 467.747284,363.147400 
	C484.315277,360.293823 500.832825,357.145782 517.409363,354.345490 
	C519.257141,354.033325 521.681519,354.798462 523.308167,355.869507 
	C541.943420,368.139618 560.482605,380.555847 579.017822,392.977386 
	C580.059509,393.675476 581.675049,394.819916 581.615234,395.655701 
	C581.072876,403.225403 581.334656,411.110596 579.178589,418.243774 
	C576.263000,427.889343 569.710999,436.630981 567.882141,446.355286 
	C566.030334,456.201782 562.265991,462.338196 552.899170,465.174866 
	C552.673096,465.243408 552.562317,465.692871 552.407898,465.970825 
	C555.282410,473.854126 555.301086,473.811493 562.914917,477.143524 
	C572.670959,481.413025 582.441284,485.656189 592.098938,490.140015 
	C594.783203,491.386261 596.361511,491.176788 598.496948,488.981018 
	C608.221680,478.981598 618.041687,469.064026 628.147583,459.453583 
	C630.741760,456.986603 634.306519,455.060120 637.764221,454.076477 
	C646.243958,451.664093 654.972229,450.132812 663.481140,447.810120 
	C665.464844,447.268677 667.608337,445.323669 668.598694,443.452942 
	C675.274292,430.843201 676.804871,417.793396 671.114929,404.315430 
	C670.539551,402.952515 670.051025,401.404907 670.099609,399.962433 
	C670.166504,397.975677 670.187256,395.574097 671.258667,394.099213 
	C680.654053,381.166382 690.212708,368.349518 699.929016,355.656097 
	C701.010986,354.242706 703.352356,353.112732 705.152832,353.047760 
	C712.975403,352.765564 720.816650,352.813171 728.644775,353.004028 
	C730.680115,353.053619 732.880798,353.703522 734.684204,354.674561 
	C745.532654,360.515564 756.006531,367.133728 767.149902,372.323486 
	C779.140442,377.907837 788.222290,385.764923 793.140503,398.154358 
	C793.383911,398.767731 793.972290,399.293427 794.059814,399.908386 
	C794.206055,400.935364 794.456970,402.212952 794.007812,403.019836 
	C785.735046,417.879791 780.085022,434.534149 765.316284,444.982483 
	C763.022339,446.605377 760.955017,448.627045 759.058289,450.714569 
	C756.291443,453.760010 753.003540,454.754028 748.932129,455.106659 
	C732.350281,456.542694 715.694824,457.688293 699.274414,460.265625 
	C683.917419,462.676025 668.823181,466.760345 653.537964,470.124573 
	C657.487305,482.581299 662.058472,492.869934 674.227661,497.239960 
	C675.922302,497.848511 677.329590,499.225952 679.003052,499.931702 
	C681.867493,501.139648 682.000977,502.947998 681.608093,505.856415 
	C679.818970,519.103455 672.357910,531.693726 677.273193,545.738037 
	C652.420715,547.475769 628.005066,549.247437 603.578918,550.862366 
	C592.080444,551.622620 587.269043,555.577454 584.688599,566.985840 
	C583.880859,570.557068 583.133728,574.143250 582.254333,577.696777 
	C580.606750,584.355530 572.838989,590.435120 566.183838,590.499634 
	C546.216431,590.692993 526.247681,590.852112 506.284363,591.263000 
	C503.346649,591.323425 501.820496,590.307861 500.269073,588.086243 
	C493.316650,578.130066 486.149078,568.324036 479.216400,558.354431 
	C477.398346,555.739990 475.266632,554.934204 472.168213,554.932617 
	C460.843781,554.926819 449.519806,554.613586 438.194977,554.471558 
	C432.779724,554.403687 427.362915,554.459900 421.652740,554.459900 
	C421.210480,559.353821 420.914276,563.992920 420.342072,568.597656 
	C419.713135,573.658936 420.172760,578.347778 422.409027,583.122620 
	C426.501343,591.860474 430.418762,600.726624 433.646118,609.810303 
	C436.918030,619.019470 442.545502,626.029602 449.460602,632.842163 
	C458.107971,641.361328 467.412170,647.224121 479.634216,648.141907 
	C489.478668,648.881165 497.414825,653.514221 504.898987,659.804077 
	C513.498047,667.030884 521.918640,674.902344 533.407410,677.539185 
	C535.842468,678.098083 538.678833,678.514221 540.973328,677.818665 
	C555.267822,673.485474 569.460815,668.817505 584.625061,663.960083 
	C584.276917,663.746765 585.129272,664.256409 585.969238,664.785706 
	C592.970093,669.197571 599.472778,675.492737 607.105469,677.506836 
	C614.976868,679.583923 623.967163,677.744934 632.425842,677.082275 
	C635.087280,676.873779 638.197144,675.537964 640.115051,673.692566 
	C686.911743,628.666138 733.606323,583.533325 780.238037,538.335815 
	C790.588928,528.303223 801.897156,519.137878 808.499329,505.716827 
	C812.012146,498.576050 816.765625,492.055237 820.629211,485.072083 
	C821.921265,482.736786 822.656921,479.866058 822.832458,477.186707 
	C823.234558,471.047363 822.269531,464.713959 823.381714,458.742859 
	C829.873657,423.888031 837.007629,389.152557 843.457642,354.290314 
	C845.276733,344.458069 849.445007,334.793976 846.787964,324.356140 
	C845.517822,319.366791 844.918091,314.210266 843.901245,309.152252 
	C841.838806,298.893127 841.042847,288.131287 837.328613,278.500824 
	C827.810120,253.820877 817.004578,229.636353 806.632019,205.288483 
	C805.737061,203.187881 804.473511,201.141495 802.983826,199.412216 
	C772.976501,164.576996 742.939026,129.767502 712.778259,95.065315 
	C711.181702,93.228432 708.593567,91.755905 706.210144,91.183365 
	C693.269958,88.074936 680.248352,85.305405 667.255859,82.414413 
	C639.824341,76.310555 612.393433,70.203773 584.610107,64.019775 
	C582.476868,72.454422 580.751343,80.754227 578.237671,88.808044 
	C575.630737,97.160744 575.880005,105.148186 577.662354,113.702690 
	C582.172058,135.346832 587.879822,156.795959 588.959351,179.073181 
	C590.476685,210.386871 594.036377,241.440109 601.530640,271.975311 
	C604.011963,282.085541 605.714111,292.387024 607.768616,302.581604 
	C591.717468,309.189545 576.185608,315.583679 560.352356,322.101898 
	C555.710388,316.705841 550.851929,311.449371 546.507385,305.797852 
	C544.963013,303.788849 543.850159,300.794830 543.927246,298.293213 
	C544.748657,271.650513 545.880432,245.017548 546.845642,218.378967 
	C547.032288,213.227341 547.584290,207.942749 546.742920,202.924881 
	C542.669006,178.628754 538.194519,154.399536 533.789185,130.159851 
	C533.535583,128.764465 532.967834,127.147285 531.993774,126.203598 
	C517.650208,112.307495 503.212860,98.508217 488.626984,84.522125 
	C459.410004,104.393234 430.383301,124.134918 400.755524,144.272202 
M331.374634,896.947449 
	C249.405167,913.941833 167.433914,930.927551 85.479637,947.994873 
	C83.873398,948.329346 81.870575,949.250549 81.067749,950.533325 
	C76.938072,957.131775 73.140495,963.938171 69.053635,970.970215 
	C72.896706,973.880554 76.466812,976.860535 80.310677,979.431152 
	C86.246445,983.400574 90.618721,988.577942 94.349266,994.654663 
	C102.884987,1008.558838 111.767845,1022.252991 120.705002,1035.904663 
	C122.271072,1038.296753 124.506020,1040.508545 126.915550,1042.045898 
	C137.021057,1048.493530 147.523132,1054.338501 157.441467,1061.052246 
	C162.301056,1064.341675 166.153091,1064.234985 171.365448,1061.988159 
	C317.208282,999.124390 463.125153,936.432312 608.999939,873.642578 
	C611.039307,872.764771 613.033630,871.291077 614.478638,869.606262 
	C622.066101,860.759521 629.103394,851.412170 637.057068,842.917725 
	C643.032471,836.536194 646.530945,830.055481 644.163086,821.178101 
	C643.574951,818.973083 643.665039,816.531555 643.759766,814.211731 
	C643.945740,809.652771 642.324524,806.927185 637.542786,805.765198 
	C633.209900,804.712280 629.116211,802.685059 624.905029,801.119751 
	C618.677368,798.804932 611.919312,793.862305 606.348450,794.952148 
	C600.535706,796.089294 595.866089,803.054565 590.689941,807.463928 
	C583.731079,813.391968 577.375000,820.301270 569.682617,825.040222 
	C550.850525,836.642090 531.416931,847.270020 512.174622,858.200500 
	C510.041168,859.412354 507.652100,860.389771 505.258911,860.895020 
	C485.558472,865.054077 465.824615,869.054443 446.109344,873.143616 
	C408.140259,881.018799 370.176697,888.920593 331.374634,896.947449 
M131.339005,553.154297 
	C127.543999,550.020569 123.434708,548.018738 118.311829,547.588867 
	C111.526268,547.019531 104.831200,545.429688 98.052635,544.683716 
	C96.036118,544.461731 93.409691,545.004700 91.844292,546.211243 
	C78.522652,556.478821 65.333801,566.921509 52.252281,577.493774 
	C50.779045,578.684448 49.574619,580.922424 49.337395,582.811768 
	C47.802193,595.038757 46.539978,607.300659 45.278923,619.560486 
	C45.131912,620.989746 45.257549,622.576721 45.734951,623.920715 
	C51.027931,638.821472 56.343784,653.715393 61.889172,668.522949 
	C62.436317,669.984009 64.411560,671.628052 65.948784,671.895630 
	C105.310829,678.747559 144.710983,685.380005 184.083160,692.174438 
	C192.579605,693.640686 201.480240,694.368469 209.358658,697.523804 
	C237.486542,708.789185 265.287140,720.877380 293.129181,732.845886 
	C298.255646,735.049561 303.632294,737.399475 307.815613,740.951294 
	C335.619568,764.558533 363.093170,788.554504 390.805969,812.270142 
	C393.048920,814.189514 396.155975,815.539062 399.071899,816.151245 
	C408.516479,818.134338 418.042786,819.754639 427.579712,821.245605 
	C429.217865,821.501709 431.591583,820.992310 432.730347,819.901794 
	C445.723022,807.458374 458.574982,794.866882 471.350891,782.200317 
	C472.501160,781.059875 473.632874,779.029785 473.460419,777.567688 
	C472.354736,768.193542 475.959076,759.992004 479.077087,751.551331 
	C482.380920,742.607544 483.010773,734.071899 474.988647,726.531616 
	C469.555939,721.425171 465.218506,715.169922 460.136078,709.664001 
	C458.693146,708.100830 456.450897,706.624695 454.412750,706.360107 
	C426.835480,702.780457 399.240509,699.329895 371.626862,696.040710 
	C353.353577,693.864197 335.461243,692.091431 319.255951,681.035706 
	C299.635071,667.649658 277.738586,657.581726 258.222260,644.063354 
	C215.654266,614.577576 173.969696,583.816406 131.339005,553.154297 
M777.280823,932.187134 
	C833.467590,968.575256 889.641907,1004.982544 945.886780,1041.280518 
	C948.110474,1042.715698 951.009216,1043.878296 953.587585,1043.866821 
	C972.740784,1043.781738 991.891846,1043.300171 1011.045227,1043.126465 
	C1014.006531,1043.099487 1015.841064,1042.303833 1017.553162,1039.775391 
	C1025.954712,1027.368042 1034.651733,1015.160828 1043.039185,1002.744202 
	C1044.068970,1001.219543 1044.520996,998.724182 1044.135132,996.914307 
	C1040.490723,979.819458 1036.557373,962.786377 1032.841064,945.706299 
	C1032.247681,942.979004 1030.888306,941.626770 1028.336060,940.551392 
	C964.989258,913.860596 901.688721,887.060120 838.343018,860.366577 
	C836.126160,859.432373 833.535950,859.027344 831.111816,858.996460 
	C804.154297,858.651489 777.195435,858.389160 750.236328,858.190674 
	C736.932617,858.092712 723.627502,858.173706 710.045593,858.173706 
	C711.510010,868.745850 712.817993,879.111816 714.506714,889.415283 
	C714.769592,891.019592 716.503967,892.745911 718.007202,893.728699 
	C737.518127,906.485107 757.110229,919.117310 777.280823,932.187134 
M979.246277,704.754517 
	C1002.830139,696.756470 1026.414062,688.758423 1049.104370,681.063477 
	C1049.104370,669.666992 1049.164429,659.016052 1049.026245,648.367676 
	C1049.009399,647.070374 1048.220459,645.501160 1047.290161,644.542419 
	C1040.215088,637.251770 1033.115234,629.977478 1025.761230,622.972900 
	C1024.476807,621.749451 1021.912048,621.234070 1020.019714,621.388184 
	C1007.743286,622.388000 995.505981,623.905212 983.221191,624.748779 
	C976.929688,625.180847 971.273560,626.790100 965.638306,629.596802 
	C928.996277,647.846619 892.252808,665.892883 855.541260,684.003235 
	C824.951904,699.093323 794.353088,714.164429 763.794067,729.315674 
	C762.314697,730.049194 760.159729,731.378540 760.044128,732.594360 
	C759.123840,742.272644 758.620850,751.990540 757.971313,761.982422 
	C803.402100,750.329712 848.216858,738.885254 893.002869,727.329468 
	C921.521118,719.971252 949.996765,712.447998 979.246277,704.754517 
z"/>
<path fill="#FEFEFE" opacity="1.000000" stroke="none" 
	d="
M401.056091,144.074402 
	C430.383301,124.134918 459.410004,104.393234 488.626984,84.522125 
	C503.212860,98.508217 517.650208,112.307495 531.993774,126.203598 
	C532.967834,127.147285 533.535583,128.764465 533.789185,130.159851 
	C538.194519,154.399536 542.669006,178.628754 546.742920,202.924881 
	C547.584290,207.942749 547.032288,213.227341 546.845642,218.378967 
	C545.880432,245.017548 544.748657,271.650513 543.927246,298.293213 
	C543.850159,300.794830 544.963013,303.788849 546.507385,305.797852 
	C550.851929,311.449371 555.710388,316.705841 560.352356,322.101898 
	C576.185608,315.583679 591.717468,309.189545 607.768616,302.581604 
	C605.714111,292.387024 604.011963,282.085541 601.530640,271.975311 
	C594.036377,241.440109 590.476685,210.386871 588.959351,179.073181 
	C587.879822,156.795959 582.172058,135.346832 577.662354,113.702690 
	C575.880005,105.148186 575.630737,97.160744 578.237671,88.808044 
	C580.751343,80.754227 582.476868,72.454422 584.610107,64.019775 
	C612.393433,70.203773 639.824341,76.310555 667.255859,82.414413 
	C680.248352,85.305405 693.269958,88.074936 706.210144,91.183365 
	C708.593567,91.755905 711.181702,93.228432 712.778259,95.065315 
	C742.939026,129.767502 772.976501,164.576996 802.983826,199.412216 
	C804.473511,201.141495 805.737061,203.187881 806.632019,205.288483 
	C817.004578,229.636353 827.810120,253.820877 837.328613,278.500824 
	C841.042847,288.131287 841.838806,298.893127 843.901245,309.152252 
	C844.918091,314.210266 845.517822,319.366791 846.787964,324.356140 
	C849.445007,334.793976 845.276733,344.458069 843.457642,354.290314 
	C837.007629,389.152557 829.873657,423.888031 823.381714,458.742859 
	C822.269531,464.713959 823.234558,471.047363 822.832458,477.186707 
	C822.656921,479.866058 821.921265,482.736786 820.629211,485.072083 
	C816.765625,492.055237 812.012146,498.576050 808.499329,505.716827 
	C801.897156,519.137878 790.588928,528.303223 780.238037,538.335815 
	C733.606323,583.533325 686.911743,628.666138 640.115051,673.692566 
	C638.197144,675.537964 635.087280,676.873779 632.425842,677.082275 
	C623.967163,677.744934 614.976868,679.583923 607.105469,677.506836 
	C599.472778,675.492737 592.970093,669.197571 585.969238,664.785706 
	C585.129272,664.256409 584.276917,663.746765 584.625061,663.960083 
	C569.460815,668.817505 555.267822,673.485474 540.973328,677.818665 
	C538.678833,678.514221 535.842468,678.098083 533.407410,677.539185 
	C521.918640,674.902344 513.498047,667.030884 504.898987,659.804077 
	C497.414825,653.514221 489.478668,648.881165 479.634216,648.141907 
	C467.412170,647.224121 458.107971,641.361328 449.460602,632.842163 
	C442.545502,626.029602 436.918030,619.019470 433.646118,609.810303 
	C430.418762,600.726624 426.501343,591.860474 422.409027,583.122620 
	C420.172760,578.347778 419.713135,573.658936 420.342072,568.597656 
	C420.914276,563.992920 421.210480,559.353821 421.652740,554.459900 
	C427.362915,554.459900 432.779724,554.403687 438.194977,554.471558 
	C449.519806,554.613586 460.843781,554.926819 472.168213,554.932617 
	C475.266632,554.934204 477.398346,555.739990 479.216400,558.354431 
	C486.149078,568.324036 493.316650,578.130066 500.269073,588.086243 
	C501.820496,590.307861 503.346649,591.323425 506.284363,591.263000 
	C526.247681,590.852112 546.216431,590.692993 566.183838,590.499634 
	C572.838989,590.435120 580.606750,584.355530 582.254333,577.696777 
	C583.133728,574.143250 583.880859,570.557068 584.688599,566.985840 
	C587.269043,555.577454 592.080444,551.622620 603.578918,550.862366 
	C628.005066,549.247437 652.420715,547.475769 677.273193,545.738037 
	C672.357910,531.693726 679.818970,519.103455 681.608093,505.856415 
	C682.000977,502.947998 681.867493,501.139648 679.003052,499.931702 
	C677.329590,499.225952 675.922302,497.848511 674.227661,497.239960 
	C662.058472,492.869934 657.487305,482.581299 653.537964,470.124573 
	C668.823181,466.760345 683.917419,462.676025 699.274414,460.265625 
	C715.694824,457.688293 732.350281,456.542694 748.932129,455.106659 
	C753.003540,454.754028 756.291443,453.760010 759.058289,450.714569 
	C760.955017,448.627045 763.022339,446.605377 765.316284,444.982483 
	C780.085022,434.534149 785.735046,417.879791 794.007812,403.019836 
	C794.456970,402.212952 794.206055,400.935364 794.059814,399.908386 
	C793.972290,399.293427 793.383911,398.767731 793.140503,398.154358 
	C788.222290,385.764923 779.140442,377.907837 767.149902,372.323486 
	C756.006531,367.133728 745.532654,360.515564 734.684204,354.674561 
	C732.880798,353.703522 730.680115,353.053619 728.644775,353.004028 
	C720.816650,352.813171 712.975403,352.765564 705.152832,353.047760 
	C703.352356,353.112732 701.010986,354.242706 699.929016,355.656097 
	C690.212708,368.349518 680.654053,381.166382 671.258667,394.099213 
	C670.187256,395.574097 670.166504,397.975677 670.099609,399.962433 
	C670.051025,401.404907 670.539551,402.952515 671.114929,404.315430 
	C676.804871,417.793396 675.274292,430.843201 668.598694,443.452942 
	C667.608337,445.323669 665.464844,447.268677 663.481140,447.810120 
	C654.972229,450.132812 646.243958,451.664093 637.764221,454.076477 
	C634.306519,455.060120 630.741760,456.986603 628.147583,459.453583 
	C618.041687,469.064026 608.221680,478.981598 598.496948,488.981018 
	C596.361511,491.176788 594.783203,491.386261 592.098938,490.140015 
	C582.441284,485.656189 572.670959,481.413025 562.914917,477.143524 
	C555.301086,473.811493 555.282410,473.854126 552.402832,465.967743 
	C552.562317,465.692871 552.673096,465.243408 552.899170,465.174866 
	C562.265991,462.338196 566.030334,456.201782 567.882141,446.355286 
	C569.710999,436.630981 576.263000,427.889343 579.178589,418.243774 
	C581.334656,411.110596 581.072876,403.225403 581.615234,395.655701 
	C581.675049,394.819916 580.059509,393.675476 579.017822,392.977386 
	C560.482605,380.555847 541.943420,368.139618 523.308167,355.869507 
	C521.681519,354.798462 519.257141,354.033325 517.409363,354.345490 
	C500.832825,357.145782 484.315277,360.293823 467.747284,363.147400 
	C464.587402,363.691620 462.975433,364.949371 461.979309,368.105652 
	C458.423553,379.372375 454.399658,390.491486 450.853210,401.760956 
	C450.254669,403.662750 450.505859,406.369995 451.444763,408.128235 
	C456.618561,417.817413 461.741180,427.574005 467.639618,436.823944 
	C472.703033,444.764404 475.333923,452.897064 473.275726,462.914948 
	C470.128326,463.896667 466.427887,465.235229 462.628723,466.174408 
	C459.854401,466.860260 458.502319,468.250397 457.982880,471.109589 
	C456.853424,477.326782 455.240326,483.456299 454.117737,489.674530 
	C453.608704,492.494080 452.640442,493.564331 449.570435,494.319397 
	C440.828064,496.469482 432.564484,495.945557 424.239136,492.642700 
	C419.617401,490.809174 414.603912,489.959167 409.991669,488.106537 
	C390.601013,480.317566 370.020905,479.905273 349.667236,478.043701 
	C341.546906,477.300995 333.423462,476.592926 324.884186,475.831909 
	C321.984467,463.928589 319.076782,452.009521 316.178253,440.088226 
	C314.172668,431.839630 311.881317,423.645355 310.278198,415.318909 
	C309.060883,408.996399 308.127991,402.506805 308.096893,396.086548 
	C307.903168,356.090546 307.965881,316.093079 308.072998,276.096405 
	C308.080261,273.381165 308.692444,270.470276 309.785004,267.985321 
	C322.179596,239.794769 334.673157,211.647232 347.314850,183.566803 
	C348.395111,181.167221 350.370178,178.820068 352.532349,177.313934 
	C368.520813,166.176651 384.662231,155.258957 401.056091,144.074402 
z"/>
<path fill="#FEFEFE" opacity="1.000000" stroke="none" 
	d="
M331.792725,896.879395 
	C370.176697,888.920593 408.140259,881.018799 446.109344,873.143616 
	C465.824615,869.054443 485.558472,865.054077 505.258911,860.895020 
	C507.652100,860.389771 510.041168,859.412354 512.174622,858.200500 
	C531.416931,847.270020 550.850525,836.642090 569.682617,825.040222 
	C577.375000,820.301270 583.731079,813.391968 590.689941,807.463928 
	C595.866089,803.054565 600.535706,796.089294 606.348450,794.952148 
	C611.919312,793.862305 618.677368,798.804932 624.905029,801.119751 
	C629.116211,802.685059 633.209900,804.712280 637.542786,805.765198 
	C642.324524,806.927185 643.945740,809.652771 643.759766,814.211731 
	C643.665039,816.531555 643.574951,818.973083 644.163086,821.178101 
	C646.530945,830.055481 643.032471,836.536194 637.057068,842.917725 
	C629.103394,851.412170 622.066101,860.759521 614.478638,869.606262 
	C613.033630,871.291077 611.039307,872.764771 608.999939,873.642578 
	C463.125153,936.432312 317.208282,999.124390 171.365448,1061.988159 
	C166.153091,1064.234985 162.301056,1064.341675 157.441467,1061.052246 
	C147.523132,1054.338501 137.021057,1048.493530 126.915550,1042.045898 
	C124.506020,1040.508545 122.271072,1038.296753 120.705002,1035.904663 
	C111.767845,1022.252991 102.884987,1008.558838 94.349266,994.654663 
	C90.618721,988.577942 86.246445,983.400574 80.310677,979.431152 
	C76.466812,976.860535 72.896706,973.880554 69.053635,970.970215 
	C73.140495,963.938171 76.938072,957.131775 81.067749,950.533325 
	C81.870575,949.250549 83.873398,948.329346 85.479637,947.994873 
	C167.433914,930.927551 249.405167,913.941833 331.792725,896.879395 
z"/>
<path fill="#FEFEFE" opacity="1.000000" stroke="none" 
	d="
M131.631577,553.365356 
	C173.969696,583.816406 215.654266,614.577576 258.222260,644.063354 
	C277.738586,657.581726 299.635071,667.649658 319.255951,681.035706 
	C335.461243,692.091431 353.353577,693.864197 371.626862,696.040710 
	C399.240509,699.329895 426.835480,702.780457 454.412750,706.360107 
	C456.450897,706.624695 458.693146,708.100830 460.136078,709.664001 
	C465.218506,715.169922 469.555939,721.425171 474.988647,726.531616 
	C483.010773,734.071899 482.380920,742.607544 479.077087,751.551331 
	C475.959076,759.992004 472.354736,768.193542 473.460419,777.567688 
	C473.632874,779.029785 472.501160,781.059875 471.350891,782.200317 
	C458.574982,794.866882 445.723022,807.458374 432.730347,819.901794 
	C431.591583,820.992310 429.217865,821.501709 427.579712,821.245605 
	C418.042786,819.754639 408.516479,818.134338 399.071899,816.151245 
	C396.155975,815.539062 393.048920,814.189514 390.805969,812.270142 
	C363.093170,788.554504 335.619568,764.558533 307.815613,740.951294 
	C303.632294,737.399475 298.255646,735.049561 293.129181,732.845886 
	C265.287140,720.877380 237.486542,708.789185 209.358658,697.523804 
	C201.480240,694.368469 192.579605,693.640686 184.083160,692.174438 
	C144.710983,685.380005 105.310829,678.747559 65.948784,671.895630 
	C64.411560,671.628052 62.436317,669.984009 61.889172,668.522949 
	C56.343784,653.715393 51.027931,638.821472 45.734951,623.920715 
	C45.257549,622.576721 45.131912,620.989746 45.278923,619.560486 
	C46.539978,607.300659 47.802193,595.038757 49.337395,582.811768 
	C49.574619,580.922424 50.779045,578.684448 52.252281,577.493774 
	C65.333801,566.921509 78.522652,556.478821 91.844292,546.211243 
	C93.409691,545.004700 96.036118,544.461731 98.052635,544.683716 
	C104.831200,545.429688 111.526268,547.019531 118.311829,547.588867 
	C123.434708,548.018738 127.543999,550.020569 131.631577,553.365356 
z"/>
<path fill="#FEFEFE" opacity="1.000000" stroke="none" 
	d="
M776.981384,931.983948 
	C757.110229,919.117310 737.518127,906.485107 718.007202,893.728699 
	C716.503967,892.745911 714.769592,891.019592 714.506714,889.415283 
	C712.817993,879.111816 711.510010,868.745850 710.045593,858.173706 
	C723.627502,858.173706 736.932617,858.092712 750.236328,858.190674 
	C777.195435,858.389160 804.154297,858.651489 831.111816,858.996460 
	C833.535950,859.027344 836.126160,859.432373 838.343018,860.366577 
	C901.688721,887.060120 964.989258,913.860596 1028.336060,940.551392 
	C1030.888306,941.626770 1032.247681,942.979004 1032.841064,945.706299 
	C1036.557373,962.786377 1040.490723,979.819458 1044.135132,996.914307 
	C1044.520996,998.724182 1044.068970,1001.219543 1043.039185,1002.744202 
	C1034.651733,1015.160828 1025.954712,1027.368042 1017.553162,1039.775391 
	C1015.841064,1042.303833 1014.006531,1043.099487 1011.045227,1043.126465 
	C991.891846,1043.300171 972.740784,1043.781738 953.587585,1043.866821 
	C951.009216,1043.878296 948.110474,1042.715698 945.886780,1041.280518 
	C889.641907,1004.982544 833.467590,968.575256 776.981384,931.983948 
z"/>
<path fill="#FDFEFE" opacity="1.000000" stroke="none" 
	d="
M978.868896,704.876587 
	C949.996765,712.447998 921.521118,719.971252 893.002869,727.329468 
	C848.216858,738.885254 803.402100,750.329712 757.971313,761.982422 
	C758.620850,751.990540 759.123840,742.272644 760.044128,732.594360 
	C760.159729,731.378540 762.314697,730.049194 763.794067,729.315674 
	C794.353088,714.164429 824.951904,699.093323 855.541260,684.003235 
	C892.252808,665.892883 928.996277,647.846619 965.638306,629.596802 
	C971.273560,626.790100 976.929688,625.180847 983.221191,624.748779 
	C995.505981,623.905212 1007.743286,622.388000 1020.019714,621.388184 
	C1021.912048,621.234070 1024.476807,621.749451 1025.761230,622.972900 
	C1033.115234,629.977478 1040.215088,637.251770 1047.290161,644.542419 
	C1048.220459,645.501160 1049.009399,647.070374 1049.026245,648.367676 
	C1049.164429,659.016052 1049.104370,669.666992 1049.104370,681.063477 
	C1026.414062,688.758423 1002.830139,696.756470 978.868896,704.876587 
z"/>
</svg>